<?xml version="1.0" encoding="UTF-8" standalone="no"?>
<svg xmlns:dc="http://purl.org/dc/elements/1.1/" xmlns:cc="http://creativecommons.org/ns#" xmlns:rdf="http://www.w3.org/1999/02/22-rdf-syntax-ns#" xmlns:svg="http://www.w3.org/2000/svg" xmlns="http://www.w3.org/2000/svg" xmlns:xlink="http://www.w3.org/1999/xlink" 
	viewBox="0 0 230 170"  height="170"
	width="230"
	xml:space="preserve"
	version="1.1"
	id="svg2"
>

	<defs id="defs6">

		<clipPath id="clipPath66" clipPathUnits="userSpaceOnUse">
			<path id="path68" d="M 0,2187.71 0,0 l 4480,0 0,2187.71 -4480,0 z" />
		</clipPath>

	</defs>

	<g transform="matrix(1.25,0,0,-1.25,0,273.4625)" id="g10">
		<g transform="scale(0.1,0.1)" id="g12">

			<!--Bird-->
			<g id="g62">
				<g clip-path="url(#clipPath66)" id="g64">
					<path id="path70" style="fill:#ffffff;fill-opacity:1;fill-rule:nonzero;stroke:none" d="m 646.621,2164.37 c 0,0 524.159,-272.75 690.879,-273.08 0,0 349.24,-43.91 181.84,-271.84 0,0 -19.98,-104.47 49.71,-35.07 0,0 80.52,61.89 162.63,11.19 0,0 27.42,-14.8 30.15,-25.4 2.67,-10.6 85.03,-29.39 89.78,-36.52 l -56.06,-23.76 c 0,0 7.44,2.24 -16.01,-25.21 -23.45,-27.45 -90.41,-57.61 -288.59,-209.31 0,0 81.52,-154.64 -372.81,-205.85 0,0 -564.671,-40.12 -704.976,-256.161 0,0 -33.066,-32.449 -13.418,20.032 0,0 5.977,161.39 568.203,382.099 0,0 135.691,49.33 90.101,91.3 0,0 -220.64,67.82 -319.445,45.22 0,0 -336.039,-5.24 -482.082,-111.21 0,0 68.75,70.84 93.282,99.66 24.511,28.84 50.105,39.73 46.906,70.73 -3.195,30.99 -188.789,151.22 -208.625,171.07 0,0 258.301,-48.79 327.859,-64.38 69.59,-15.6 321.528,-65.09 453.535,19.6 0,0 132.26,51.19 0.942,218.06 -131.328,166.89 -366.762,417.37 -366.762,417.37 0,0 -9.265,26.95 42.961,-8.54" />
				</g>
			</g>

		</g>
	</g>
</svg>